<svg xmlns="http://www.w3.org/2000/svg" width="545.012" height="361.385" viewBox="0 0 545.012 361.385"><g transform="translate(88.453 -279.289)"><g transform="translate(-70.453 317.887)"><path d="M323.593,527.713c-2.376-3.109-5.742-5.13-8.69-6.915-9.268-5.556-18.292-11.566-27.038-17.406-6.832-4.531-13.916-9.15-21.061-13.665,7.053,1.236,13.622,2.377,20.228,3.525,8.788,1.5,17.613,3.008,27.633,4.752,3.341.581,7.129,1.251,10.876.36,3.71-.9,7.735-3.792,8.276-8.3.393-3.572-1.234-8.706-11.32-12.869a528.006,528.006,0,0,0-64-21.515c7.628-2.066,15.187-4.573,21.621-9.243,5.166-3.756,9.7-9.81,7.1-15.524-1.675-3.709-5.766-5.8-12.041-6.258-10.325-.795-20.62,1.212-30.548,3.135-13.2,2.558-25.635,5-38.557,1.632-40.889-12.53-77.289-33.646-112.544-54.071-12.777-7.449-33.964-20.675-54.455-33.489-20.567-12.83-41.822-26.107-54.71-33.579a.34.34,0,0,0-.18-.074,1.393,1.393,0,0,0-.366-.111,1.389,1.389,0,0,0-.38-.036.705.705,0,0,0-.314.016,3.167,3.167,0,0,0-.366.082,1.674,1.674,0,0,0-.3.173,1.726,1.726,0,0,0-.314.211c-.052.067-.134.09-.187.157-20.55,24.282-46.09,62.838-56.9,94.244l-.015.075a1.605,1.605,0,0,0-.044.417.779.779,0,0,0-.021.307c.016.119.068.246.083.365a2,2,0,0,0,.129.336c.059.09.119.18.18.268.1.1.187.232.285.329a.036.036,0,0,1,.03.044c41.052,31.971,99.365,58.3,155.793,83.759C136.6,513.769,193.633,539.5,233.831,570.292a17.988,17.988,0,0,0,7.127,3.619,6.778,6.778,0,0,0,6.032-1.45c2.7-2.458,2.866-6.655.521-11.892a166.1,166.1,0,0,0-11.13-20.517c5.17,3.893,10.088,7.7,14.871,11.4,8.51,6.647,17.371,13.48,27.488,20.445a29.43,29.43,0,0,0,8.712,4.629l.934.185a10.923,10.923,0,0,0,9.57-2.266c3.517-3.266,3.585-8.533,2.08-12.323-1.518-3.909-4.573-6.918-7.045-9.347-7.436-7.368-13.971-13.392-20.853-19.834-4.6-4.245-9.314-8.67-14.346-13.467,5.96,2.846,11.831,5.75,17.59,8.633,9.177,4.643,18.683,9.392,28.418,13.758a37.8,37.8,0,0,0,8.09,2.876,16.2,16.2,0,0,0,2.69.336c4.7.189,8.934-2,10.718-5.533C327.119,536.018,326.441,531.38,323.593,527.713ZM-70.867,402.892c10.691-30.188,34.875-66.8,54.734-90.519,12.911,7.555,33.365,20.363,53.167,32.732,20.53,12.822,41.754,26.054,54.605,33.518,9.852,5.747,19.853,11.524,29.959,17.167-12.561,18.018-33.767,51.529-44.795,86.773C23.052,458.3-31.785,433.038-70.867,402.892ZM83.039,485.386c-.927-.416-1.854-.832-2.744-1.24,10.923-35.112,32.182-68.688,44.668-86.528,7.667,4.231,15.393,8.355,23.276,12.277a345.824,345.824,0,0,0-45.317,84.5Q92.929,489.859,83.039,485.386Zm238.877,52.4c-1.278,2.542-4.546,3.566-7.205,3.47-3.2-.126-6.338-1.522-9.366-2.9-9.632-4.306-19.1-9.047-28.247-13.645-8.966-4.526-18.225-9.147-27.67-13.417a4.338,4.338,0,0,1-.456-.439,1.89,1.89,0,0,0-2.884,2.42,2.047,2.047,0,0,0,1.012,1.169l.111.023c8.223,8.1,15.4,14.8,22.321,21.25,6.888,6.405,13.379,12.46,20.786,19.783,2.216,2.145,4.942,4.856,6.184,8.013.977,2.521,1.046,6.106-1.137,8.12-1.9,1.761-4.813,1.768-6.914,1.2-2.727-.733-5.287-2.518-7.576-4.1-10.02-6.867-18.394-13.41-27.286-20.289-7.064-5.509-14.37-11.18-22.534-17.022l-.2-.35a1.957,1.957,0,0,0-2.631-.635,1.922,1.922,0,0,0-.635,2.631l.149.223a1.985,1.985,0,0,0,.346.612l3.247,5.182c5.709,9.239,8.334,13.445,12.72,23.084.76,1.663,2.286,5.73.4,7.415-2.176,1.979-6.531-.938-8.282-2.293C201.3,540.584,154.1,517.726,106.378,495.966a342.3,342.3,0,0,1,45.331-84.377A364.1,364.1,0,0,0,204.743,433c.038.008.068.052.106.06l.187.036c.553.148,1.062.326,1.607.511l.187.036a2.471,2.471,0,0,0,.777,0c12.876,2.617,25.529.26,37.757-2.1,9.691-1.893,19.7-3.839,29.532-3.1,4.781.36,7.773,1.727,8.869,4.039,2.141,4.693-4.515,9.9-5.872,10.876-7.394,5.412-16.785,7.751-25.853,10.039l-.949.279a.747.747,0,0,0-.254-.089,1.887,1.887,0,0,0-2.326,1.365,1.92,1.92,0,0,0,1.4,2.334,530.631,530.631,0,0,1,71.151,23.43c3.552,1.477,9.461,4.584,8.957,8.908-.329,2.652-3.02,4.49-5.38,5.033-2.978.733-6.2.137-9.315-.4-10.02-1.744-18.845-3.251-27.669-4.758-8.819-1.546-17.642-3.054-27.626-4.79a1.863,1.863,0,0,0-2.207,1.545,2.035,2.035,0,0,0,.032.821,1.85,1.85,0,0,0,.834,2.066c9.225,5.585,18.285,11.6,27.069,17.452s17.845,11.865,27.182,17.473c2.805,1.718,5.722,3.458,7.633,5.97C322.149,532.086,323.188,535.281,321.916,537.787Z" transform="translate(75.043 -308.046)" fill="#304189"></path><path d="M120.533,394.687C107.973,412.7,86.766,446.215,75.739,481.46,21.987,457.193-32.85,431.935-71.932,401.788c10.691-30.188,34.875-66.8,54.734-90.519C-4.287,318.824,16.167,331.632,35.969,344c20.53,12.822,41.754,26.054,54.605,33.518C100.426,383.267,110.427,389.044,120.533,394.687Z" transform="translate(76.107 -306.943)" fill="#3789ed"></path><path d="M108.632,387.056a345.824,345.824,0,0,0-45.317,84.5q-9.994-4.534-19.884-9.008c-.927-.416-1.854-.832-2.744-1.24,10.923-35.112,32.182-68.688,44.668-86.528C93.023,379.01,100.749,383.134,108.632,387.056Z" transform="translate(114.65 -285.207)" fill="#ef8450"></path><path d="M275.658,511.385c-1.278,2.542-4.546,3.566-7.205,3.47-3.2-.126-6.338-1.522-9.366-2.9-9.632-4.306-19.1-9.047-28.247-13.645-8.966-4.526-18.225-9.147-27.67-13.417a4.338,4.338,0,0,1-.456-.439,1.89,1.89,0,0,0-2.884,2.42,2.048,2.048,0,0,0,1.012,1.169l.111.023c8.223,8.1,15.4,14.8,22.321,21.25,6.888,6.405,13.379,12.46,20.786,19.783,2.216,2.145,4.942,4.856,6.184,8.013.977,2.521,1.046,6.106-1.137,8.121-1.9,1.761-4.813,1.768-6.914,1.2-2.727-.733-5.287-2.518-7.576-4.1-10.02-6.867-18.394-13.41-27.286-20.289-7.064-5.509-14.37-11.18-22.534-17.022l-.2-.35a1.957,1.957,0,0,0-2.631-.635,1.922,1.922,0,0,0-.635,2.631l.149.223a1.985,1.985,0,0,0,.346.612l3.247,5.182c5.709,9.239,8.334,13.445,12.72,23.084.76,1.663,2.286,5.73.4,7.415-2.176,1.978-6.531-.938-8.282-2.293-34.869-26.715-82.066-49.573-129.791-71.332a342.3,342.3,0,0,1,45.331-84.377A364.1,364.1,0,0,0,158.485,406.6c.038.008.068.052.106.06l.187.036c.553.148,1.062.326,1.607.511l.187.036a2.471,2.471,0,0,0,.777,0c12.876,2.617,25.529.26,37.757-2.1,9.691-1.893,19.7-3.839,29.532-3.1,4.781.36,7.773,1.727,8.869,4.039,2.141,4.693-4.515,9.9-5.872,10.876-7.394,5.412-16.785,7.751-25.853,10.039l-.949.279a.747.747,0,0,0-.254-.089,1.887,1.887,0,0,0-2.326,1.365,1.92,1.92,0,0,0,1.4,2.334,530.63,530.63,0,0,1,71.151,23.43c3.552,1.477,9.461,4.584,8.957,8.908-.329,2.652-3.02,4.49-5.38,5.033-2.978.733-6.2.137-9.315-.4-10.02-1.744-18.845-3.251-27.669-4.758-8.819-1.546-17.642-3.054-27.626-4.79a1.863,1.863,0,0,0-2.207,1.545,2.035,2.035,0,0,0,.032.821,1.85,1.85,0,0,0,.834,2.066c9.225,5.585,18.285,11.6,27.069,17.452s17.845,11.865,27.182,17.473c2.805,1.718,5.722,3.458,7.633,5.97C275.891,505.685,276.929,508.88,275.658,511.385Z" transform="translate(121.301 -281.645)" fill="#fff"></path></g><g transform="translate(285.914 311.026)"><path d="M232.507,316.412a9.155,9.155,0,0,0-6.125-3.851,12.588,12.588,0,0,0-2.605-.254,17.23,17.23,0,0,0-12.157,5.16,24.168,24.168,0,0,0-1.136-5.3,14.052,14.052,0,0,0-6.376-8.041,9.448,9.448,0,0,0-10.488.834c-2.927,2.525-3.836,6.98-2.67,12.806a51.538,51.538,0,0,0,5.237,14.6,49.749,49.749,0,0,0,6.562,9.551,1.526,1.526,0,0,0,1.032.525c.059,0,.09-.024.148-.021a1.524,1.524,0,0,0,.779.306.67.67,0,0,0,.236-.017A38.236,38.236,0,0,0,229.532,330a17.945,17.945,0,0,0,3.7-6.044A9.074,9.074,0,0,0,232.507,316.412Zm-2.083,6.628a13.913,13.913,0,0,1-3.115,5.016,35.172,35.172,0,0,1-22.532,11.708,43.176,43.176,0,0,1-4.635-6.451,49.3,49.3,0,0,1-6.309-16.1c-.678-3.331-.918-7.757,1.731-10.032a6.549,6.549,0,0,1,7.174-.478,11.259,11.259,0,0,1,4.99,6.411,30.581,30.581,0,0,1,1.229,8.008,1.23,1.23,0,0,0,.066.974,1.436,1.436,0,0,0,1.491,1.314,1.47,1.47,0,0,0,1.4-1.515l.007-.118a14.282,14.282,0,0,1,11.845-6.53,7.679,7.679,0,0,1,1.172.091,6.6,6.6,0,0,1,5.07,2.648A6.057,6.057,0,0,1,230.424,323.04Z" transform="translate(-190.459 -302.934)" fill="#304189"></path><path d="M229.678,322.291a13.914,13.914,0,0,1-3.115,5.016,35.172,35.172,0,0,1-22.532,11.708,49.515,49.515,0,0,1-10.943-22.55c-.678-3.331-.918-7.757,1.731-10.032a6.549,6.549,0,0,1,7.174-.478,11.259,11.259,0,0,1,4.99,6.411,30.581,30.581,0,0,1,1.229,8.008,1.23,1.23,0,0,0,.066.974,1.436,1.436,0,0,0,1.491,1.314,1.47,1.47,0,0,0,1.4-1.515l.007-.118a14.282,14.282,0,0,1,11.845-6.53c2.852.032,5.182,1.036,6.241,2.74A6.057,6.057,0,0,1,229.678,322.291Z" transform="translate(-189.713 -302.185)" fill="#ef8450"></path><path d="M231.77,321.5a17.945,17.945,0,0,1-3.7,6.044,38.236,38.236,0,0,1-24.586,12.72.669.669,0,0,1-.236.017,1.523,1.523,0,0,1-.779-.306c-.058,0-.089.024-.148.021a1.526,1.526,0,0,1-1.032-.525,49.749,49.749,0,0,1-6.562-9.551,18.591,18.591,0,0,0,3.953.941c12.511,1.566,21.116-11.076,24.8-17.974.617-1.115,1.079-2.062,1.44-2.778a8.392,8.392,0,0,1,6.848,11.39Z" transform="translate(-188.998 -300.479)" fill="#87b8f4" opacity="0.4" style="mix-blend-mode:multiply;isolation:isolate"></path></g><g transform="translate(372.524 360.103)"><path d="M305.645,351.588a9.606,9.606,0,0,0-8.322-5.419,11.841,11.841,0,0,0-5.114.564c-3.754,1.264-6.751,3.933-9.278,6.492-1.715-4.044-4.215-8.361-8.287-11.166-4.907-3.38-12.758-3.858-16.947,1.274-2.165,2.644-3.021,6.321-2.613,11.227a37.273,37.273,0,0,0,2.2,10.084,41.28,41.28,0,0,0,18.169,21.75,1.6,1.6,0,0,0,1.127.658,1.569,1.569,0,0,0,.569-.071,44.113,44.113,0,0,0,27.732-25.164C305.947,359.18,307.217,355.225,305.645,351.588Zm-3.858,8.969a40.655,40.655,0,0,1-24.724,22.931,37.625,37.625,0,0,1-15.187-16.477,36.817,36.817,0,0,1-3.488-12.71c-.321-4.037.3-6.929,1.859-8.874,2.91-3.537,8.806-3.195,12.527-.642,4.074,2.805,6.409,7.713,7.954,11.847a1.889,1.889,0,0,0,.174.474l.089.2a1.643,1.643,0,0,0,2.109.974,1.619,1.619,0,0,0,1.078-1.538c2.569-2.757,5.479-5.661,9.064-6.87a9.778,9.778,0,0,1,2.982-.475c2.689.04,5.354,1.177,6.4,3.491C303.418,354.794,303.158,357.24,301.787,360.557Z" transform="translate(-254.986 -339.497)" fill="#304189"></path><path d="M300.941,359.709a40.655,40.655,0,0,1-24.724,22.931,37.737,37.737,0,0,1-18.676-29.187c-.321-4.037.3-6.929,1.859-8.874,2.91-3.537,8.806-3.195,12.527-.642,4.074,2.805,6.409,7.713,7.954,11.847a1.889,1.889,0,0,0,.174.474l.089.2a1.643,1.643,0,0,0,2.109.974,1.619,1.619,0,0,0,1.078-1.538c2.569-2.757,5.479-5.662,9.064-6.87,3.416-1.15,7.951-.183,9.38,3.016C302.572,353.947,302.311,356.392,300.941,359.709Z" transform="translate(-254.139 -338.65)" fill="#ef8450"></path><path d="M304.293,360.115a44.113,44.113,0,0,1-27.732,25.164,1.569,1.569,0,0,1-.569.071,1.6,1.6,0,0,1-1.127-.658,41.28,41.28,0,0,1-18.169-21.75,40.963,40.963,0,0,0,4.594,2.366,38.7,38.7,0,0,0,15.41,3.331c10.8-.034,16.891-14.834,18.938-20.94.549-1.6.8-2.584.8-2.584l.3-.648a9.606,9.606,0,0,1,8.322,5.419C306.631,353.524,305.362,357.478,304.293,360.115Z" transform="translate(-254.4 -337.796)" fill="#87b8f4" opacity="0.4" style="mix-blend-mode:multiply;isolation:isolate"></path></g><g transform="translate(358.269 279.289)"><path d="M275.473,297.906a6.047,6.047,0,0,0-3.184-5.382,7.45,7.45,0,0,0-3.043-1.11,15.451,15.451,0,0,0-7.049,1.074,15.742,15.742,0,0,0-1.56-8.617c-1.827-3.278-6.125-5.739-9.922-4.013-1.96.887-3.471,2.723-4.611,5.607a23.537,23.537,0,0,0-1.576,6.3,26,26,0,0,0,4.181,17.351,1.011,1.011,0,0,0,.454.686.963.963,0,0,0,.34.119,27.781,27.781,0,0,0,22.681-6.46C273.524,302.275,275.344,300.4,275.473,297.906Zm-4.682,3.985a25.607,25.607,0,0,1-20.359,6.039,23.7,23.7,0,0,1-3.97-13.542,23.218,23.218,0,0,1,1.58-8.149c.946-2.368,2.1-3.828,3.529-4.49,2.629-1.183,5.862.656,7.249,3.137,1.515,2.721,1.463,6.142,1.18,8.907a1.319,1.319,0,0,0-.034.317l-.007.141a1.035,1.035,0,0,0,.918,1.138,1.016,1.016,0,0,0,1.038-.568c2.221-.838,4.675-1.664,7.036-1.345a6.159,6.159,0,0,1,1.815.564A4.328,4.328,0,0,1,273.4,297.8C273.321,299.094,272.49,300.4,270.791,301.891Z" transform="translate(-244.365 -279.289)" fill="#304189"></path><path d="M270.259,301.357A25.607,25.607,0,0,1,249.9,307.4a23.769,23.769,0,0,1-2.391-21.691c.946-2.368,2.1-3.828,3.529-4.49,2.629-1.183,5.862.656,7.249,3.137,1.515,2.721,1.463,6.142,1.18,8.907a1.319,1.319,0,0,0-.034.317l-.007.141a1.035,1.035,0,0,0,.918,1.138,1.016,1.016,0,0,0,1.038-.568c2.221-.838,4.675-1.664,7.036-1.345,2.248.3,4.538,2.117,4.451,4.321C272.789,298.56,271.958,299.867,270.259,301.357Z" transform="translate(-243.833 -278.756)" fill="#ef8450"></path><path d="M272.184,300.282a27.781,27.781,0,0,1-22.681,6.46.963.963,0,0,1-.34-.119,1.011,1.011,0,0,1-.454-.686,26,26,0,0,1-4.181-17.351,25.855,25.855,0,0,0,1.933,2.62,24.358,24.358,0,0,0,7.768,6.182c6.106,3,13.676-3.655,16.536-6.53.757-.749,1.173-1.235,1.173-1.235l.35-.282a6.047,6.047,0,0,1,3.184,5.382C275.344,297.217,273.524,299.093,272.184,300.282Z" transform="translate(-244.365 -276.107)" fill="#87b8f4" opacity="0.4" style="mix-blend-mode:multiply;isolation:isolate"></path></g><g transform="translate(190.23 377.688)"><path d="M384.586,491.972c3.382-22.385-2.729-44.54-16.359-59.2-11.967-12.847-29.782-20.284-48.9-20.442-.388-.008-.74-.009-1.136.02-17.338.238-33.619,8.71-46.42,16.785a86.25,86.25,0,0,0-15.608-45.923,73.757,73.757,0,0,0-6.421-7.789c-1-1.119-2.06-2.135-3.122-3.153-16.824-15.918-40.623-22.931-62.114-18.233-24.056,5.181-44.886,24.618-55.688,51.945-.851,2.072-1.616,4.283-2.393,6.723a154.061,154.061,0,0,0-6.107,29.543c-1.885,16.708-1.432,35.185,1.309,54.953.452,3.221.952,6.416,1.562,9.633a236.706,236.706,0,0,0,17.17,55.206c7.27,15.9,20.774,37.436,44.1,49.886a1.055,1.055,0,0,0,.328.113,1.8,1.8,0,0,0,1.225.974l.075.016c3.565.638,7.162,1.126,11.016,1.517a181.077,181.077,0,0,0,128.271-35.167c.054-.066.144-.124.2-.189a181.717,181.717,0,0,0,32.327-31.12,157.722,157.722,0,0,0,10.707-14.979C377.2,519.394,382.574,505.57,384.586,491.972ZM185.321,357.729c20.25-4.389,42.737,2.215,58.689,17.315.293.26.569.595.863.855a22.154,22.154,0,0,1-4.094-.013,23.572,23.572,0,0,1-7.576-2.778,26.316,26.316,0,0,0-8.161-2.948,25.627,25.627,0,0,0-7.887.546l-1.581.272c-2.541.37-5.841.65-8.456-.75a13.456,13.456,0,0,0-5.274-2.423c-5.949-1.323-13.055.8-18.566,3.827a79.386,79.386,0,0,0-11.094,7.949c-2.57,2.082-5.24,4.258-8.028,6.1a100.889,100.889,0,0,1-13.163,6.9c-5.525,2.556-11.184,5.2-16.076,8.946C145.74,378.494,164.252,362.286,185.321,357.729Zm-41.494,202.74a232.58,232.58,0,0,1-15.4-46.7c-1.229-5.7-2.264-11.39-3.06-17.107-2.638-19-3.09-36.779-1.383-52.863a.892.892,0,0,0,.482.458c4.482,1.427,5.153,7.7,5.193,11.378.015,4.841.063,10.939,4.321,14.072a15.263,15.263,0,0,0,5.3,2.153c.595.133,1.181.3,1.768.472,4.854,1.509,8.93,4.757,12.919,7.868l17.255,13.633c1.593,1.252,3.06,2.554,3.435,4.2.595,2.591-1.872,5.084-2.984,6.047l-1.438,1.2a15.715,15.715,0,0,0-4.451,4.745c-1.592,3.118-1.08,6.782-.462,9.963,1.085,5.47,2.549,11.688,6.641,16.265a40.91,40.91,0,0,0,4.892,4.484c3.531,2.892,6.864,5.624,7.211,9.68a6.554,6.554,0,0,1,0,.859c-.087,2.322-1.129,4.547-2.24,6.915-1.244,2.609-2.542,5.286-2.464,8.268a17.753,17.753,0,0,0,.824,4.358c.136.616.318,1.2.462,1.781a40.841,40.841,0,0,1,.617,7.746l.4,25.566C162.1,593.721,150.332,574.714,143.827,560.469Zm52.436,50.141c-3.233-.368-6.3-.778-9.272-1.283a1.685,1.685,0,0,0-.732-.748c-.9-.513-1.764-1.017-2.664-1.529l-.408-26.74a41.677,41.677,0,0,0-.691-8.112c-.136-.616-.31-1.24-.483-1.863a16.043,16.043,0,0,1-.729-3.909c-.066-2.511,1.055-4.915,2.274-7.415a21.232,21.232,0,0,0,2.387-7.037,11.787,11.787,0,0,0,.028-1.71c-.4-4.849-4.227-8-7.89-11a40.2,40.2,0,0,1-4.675-4.24c-3.807-4.28-5.189-10.167-6.212-15.389-.577-3.016-1.047-6.163.263-8.72a13.7,13.7,0,0,1,3.958-4.113c.525-.429,1.013-.867,1.538-1.3,1.644-1.428,4.338-4.419,3.546-7.872-.474-2.251-2.233-3.813-4.129-5.288l-17.217-13.625c-3.915-3.1-8.368-6.584-13.547-8.2-.623-.178-1.211-.348-1.842-.489a13.781,13.781,0,0,1-4.659-1.856c-3.486-2.57-3.514-7.883-3.553-12.613-.012-3.631-.675-9.592-4.615-12.225l.008-.036a1.025,1.025,0,0,0-.768-1.107l-.909-.125c-.372-.082-.714-.119-1.086-.2a156.585,156.585,0,0,1,5.841-28c.761-2.366,1.5-4.466,2.337-6.464a18.653,18.653,0,0,1,.809-1.887c.839-.789,1.715-1.569,2.612-2.267,4.809-3.729,10.469-6.37,15.993-8.926a100.59,100.59,0,0,0,13.436-7.076,99.034,99.034,0,0,0,8.2-6.173A75.678,75.678,0,0,1,184.2,373.28c6.8-3.715,16.132-6.045,21.861-1.455l.111.025a.128.128,0,0,0,.066.054,9.726,9.726,0,0,0,2.595.968,19.308,19.308,0,0,0,7.031-.035l1.619-.264a23.387,23.387,0,0,1,7.3-.522c2.624.31,5.011,1.5,7.576,2.778a27.375,27.375,0,0,0,8.2,2.956,26.863,26.863,0,0,0,5.156-.023l.942-.024c.094.1.2.161.293.26,1.577,1.678,3.084,3.5,4.538,5.38a.036.036,0,0,1-.046.028l-.3-.066c-5.762-.932-11.719-1.867-17.33.2a38.807,38.807,0,0,0-5.879,3.1c-3.028,1.862-5.883,3.646-9.164,3.656a17.018,17.018,0,0,1-3.977-.534c-.6-.1-1.2-.227-1.8-.322-2.756-.419-4.845-.142-6.408.915a5.255,5.255,0,0,0-2.314,3.386,4.086,4.086,0,0,0,.6,3.1,6.177,6.177,0,0,0,2.219,1.781,6.807,6.807,0,0,1,1.47,1.107c.9,1.02.846,2.686.762,4.462s.056,4.3,1.9,5.688c1.168.885,2.808,1.055,4.965.481a17.87,17.87,0,0,0,9.945-6.643c.338-.471.678-.941.988-1.458a12.861,12.861,0,0,1,2.463-3c1.193-.983,3.123-1.412,4.193-.432a4.987,4.987,0,0,1,.983,1.9,7.309,7.309,0,0,0,1.11,2.2c1.949,2.463,5.745,2.059,8.609.589,1.533-.75,2.958-1.37,3.734-.651.681.62.38,1.8-.142,3.441l-.193.7c-.757,2.523-.448,5.168-.2,7.721.519,4.68,1.046,9.323,1.6,14.012a2.776,2.776,0,0,1-.125,1.612c-.417.647-1.64.532-2.585.048a6.852,6.852,0,0,1-3.4-6.648,5.779,5.779,0,0,1,.137-.789,10.341,10.341,0,0,0,.22-1.863,3.259,3.259,0,0,0-1.593-3.007,3.879,3.879,0,0,0-2.859-.13c-.322.046-.69.121-1.05.157a6.533,6.533,0,0,1-3.44-1.546c-1.517-1.078-3.2-2.272-5.263-1.6-1.842.565-2.821,1.987-3.748,3.341a12.062,12.062,0,0,1-2.07,2.466,142.727,142.727,0,0,1-11.715,9.683L201.545,438.4c-3.207,2.485-6.5,5.028-10.354,6.2a11.329,11.329,0,0,1-1.5.409c-2.623.742-5.651,1.552-6.845,4.29a9.261,9.261,0,0,0-.538,3.82c0,.509.016.98-.017,1.479-.067,1.35-.769,2.756-1.8,2.838s-1.962-1.177-2.309-2.425c-.119-.338-.223-.752-.334-1.127a7.894,7.894,0,0,0-1.668-3.727c-1.255-1.372-3.084-1.74-4.82-2.009a43.863,43.863,0,0,0-12.334-.676,17.384,17.384,0,0,0-11.205,5.466c-3.05,3.534-3.86,8.582-1.962,12.322a9.049,9.049,0,0,0,5.492,4.421c.187.042.364.119.55.161a7.478,7.478,0,0,0,5.523-.8,14.205,14.205,0,0,0,1.921-1.446,8.216,8.216,0,0,1,1.459-1.119c.871-.587,2.11-.9,2.846-.342a2.054,2.054,0,0,1,.619,2.129,5.136,5.136,0,0,1-1.554,2.424c-.1.1-.086.215-.111.326a2.108,2.108,0,0,0-.723,1.321,3.524,3.524,0,0,0,1.648,3.294,7.26,7.26,0,0,0,2.247.773,7.543,7.543,0,0,1,1.846.644c1.587.938,1.706,3.033,1.87,5.45.115,2.289.25,4.66,1.691,6.424,2.118,2.578,6.109,2.882,10.769.875l1.034-.434c2.738-1.263,5.6-2.538,8.154-1.58a10.3,10.3,0,0,1,3.627,2.642,12.3,12.3,0,0,0,4.319,3.029,10.817,10.817,0,0,0,3.664.542,8.1,8.1,0,0,1,3.734.753c1.3.8,1.965,2.388,2.655,4.024a10.556,10.556,0,0,0,2.9,4.664A11.079,11.079,0,0,0,217,505.161c1.681.336,3.3.616,4.311,1.662.95.992,1.211,2.455,1.482,4.036a20.214,20.214,0,0,0,.553,2.425c1.552,4.949,6.62,7.6,9.531,8.715,1.726.658,3.494,1.129,5.217,1.629a45.384,45.384,0,0,1,6.608,2.212c4.143,1.9,6.839,5.033,7.185,8.388.3,2.839-1.1,5.647-2.48,8.343-1.46,2.875-2.919,5.749-4.424,8.653-1.513,2.941-2.988,5.89-4.5,8.829-1.248,2.454-3.236,5.25-5.578,4.729a7.033,7.033,0,0,1-1.833-.876,6.037,6.037,0,0,0-3.458-1.121c-2.066.165-3.5,2.225-3.781,4.192a13.272,13.272,0,0,0,.032,3.362c.032.554.111,1.078.106,1.624.024,5.858-4.753,10.49-9.633,14.71-5.169,4.468-10.358,8.5-16.39,8.6a.939.939,0,0,0-.9.735c-.455,1.694-.889,3.47-1.315,5.208A39.073,39.073,0,0,0,196.263,610.61Zm169.13-79.563a154.745,154.745,0,0,1-10.468,14.6,177.251,177.251,0,0,1-29.548,28.811c.208-4.44.416-8.882.615-13.284.166-3.9.4-8.3-.821-12.434-.392-1.219-.867-2.417-1.35-3.577-1.064-2.578-2.051-4.984-1.737-7.449a17.174,17.174,0,0,1,1.7-4.849c1.231-2.729,2.526-5.562,1.333-8.443a8.255,8.255,0,0,0-2.953-3.388,22.907,22.907,0,0,0-1.974-1.3,33.943,33.943,0,0,0-9.367-4.192,14.2,14.2,0,0,0-3.778-.373,25.461,25.461,0,0,0-7.151,1.8,21.677,21.677,0,0,1-7.007,1.678c-3.9-.009-7.878-2.3-10.684-6.162-2.73-3.69-4.224-8.2-5.557-12.2-1.4-4.215-1.246-7.028.466-8.4a7.189,7.189,0,0,1,2.227-1.066,15.278,15.278,0,0,0,1.446-.536c1.487-.722,3.149-2.225,2.864-4.279a4.653,4.653,0,0,0-1.788-2.66,8.334,8.334,0,0,1-1.028-1.165c-1.581-2.537,2.554-5.87,3.405-6.538l10.628-8.131a56.175,56.175,0,0,1,4.59-3.27,29.151,29.151,0,0,1,4.05,8.627.038.038,0,0,0,.03.046.142.142,0,0,1,.012.119,3.749,3.749,0,0,0,.326.463c.094.1.107.219.211.281a1.628,1.628,0,0,0,.871.467,2.229,2.229,0,0,0,.859,0l.091-.058c.038.009.074.017.082-.02a113.62,113.62,0,0,1,31.12-6.417c.083-.022.157,0,.24-.026.036.009.028.046.058.091A19.208,19.208,0,0,0,339.5,469.8c3.514,2.616,8.012,2.915,12.362,3.18,4.462.291,8.691.569,11.755,3.28,2.8,2.5,3.765,6.573,4.433,10.585a116.329,116.329,0,0,1-1.294,41.928C366.28,529.528,365.874,530.3,365.394,531.047Zm-63.687-70.241a66.976,66.976,0,0,1,33.4-7.706,63.787,63.787,0,0,1,13.139,1.793,18.8,18.8,0,0,1,1.7,9.2,99.585,99.585,0,0,0-12.912-.182c-.038-.008-.121.013-.157.005a116.4,116.4,0,0,0-30.269,6.1,33.214,33.214,0,0,0-4.475-8.643A6.511,6.511,0,0,0,301.707,460.807Zm67.94,62.877a117.125,117.125,0,0,0,.264-37.124c-.7-4.372-1.782-8.824-5.036-11.734-3.518-3.123-8.286-3.444-12.9-3.73-4.268-.286-8.275-.515-11.31-2.829-.236-.169-.455-.412-.652-.574a89.306,89.306,0,0,1,10.946.252,2.523,2.523,0,0,0,.984-.211,1.9,1.9,0,0,0,1.64-1.587,22.193,22.193,0,0,0-2.209-13.562l-.087-.136a1.89,1.89,0,0,0-1.247-1.058,70.34,70.34,0,0,0-51.53,6.79,1.775,1.775,0,0,0-.944,1.429,1.882,1.882,0,0,0,.149,2.14c.211.281.45.607.652.925-1.644,1.078-3.223,2.209-4.674,3.291l-10.635,8.168c-4.041,3.08-5.459,6.471-3.85,9.053a8.137,8.137,0,0,0,1.372,1.554,3.131,3.131,0,0,1,1.176,1.549c.145.929-.831,1.805-1.789,2.255-.392.185-.813.326-1.243.5a9.138,9.138,0,0,0-2.8,1.366c-2.38,1.929-2.733,5.439-1.086,10.488,1.383,4.131,2.918,8.8,5.828,12.728,3.172,4.334,7.747,6.914,12.229,6.935a22.457,22.457,0,0,0,7.623-1.815,23.4,23.4,0,0,1,6.611-1.65c4.345-.243,8.455,2.154,12.076,4.287a20.851,20.851,0,0,1,1.843,1.191,6.261,6.261,0,0,1,2.311,2.582c.9,2.111-.17,4.448-1.3,6.89a17.973,17.973,0,0,0-1.864,5.4c-.393,2.995.75,5.746,1.872,8.415.455,1.115.937,2.276,1.271,3.4,1.136,3.843.936,7.9.732,11.79-.212,4.986-.432,10.009-.682,14.986a2.086,2.086,0,0,0-.29.248,1.031,1.031,0,0,0-.235.181A176.588,176.588,0,0,1,279.48,600.3a178.924,178.924,0,0,1-81.308,10.5,36.019,36.019,0,0,1,1.408-9.129c.376-1.516.753-3.031,1.121-4.51,6.366-.379,11.617-4.515,16.923-9.069,4.97-4.279,10.26-9.462,10.271-16.17-.026-.591-.087-1.189-.119-1.742a13.435,13.435,0,0,1-.048-2.937c.181-1.17,1.016-2.467,2.058-2.586a4.648,4.648,0,0,1,2.333.91,8.038,8.038,0,0,0,2.376,1.075c1.97.438,4.883-.2,7.668-5.707.195-.346.36-.738.554-1.086,1.318-2.593,2.666-5.142,3.993-7.773,1.459-2.875,2.926-5.786,4.423-8.652,1.405-2.809,3.013-6,2.637-9.4-.391-4.028-3.507-7.726-8.249-9.912a47.175,47.175,0,0,0-6.9-2.317c-1.686-.491-3.416-.954-5.068-1.6-2.557-.958-7.071-3.29-8.4-7.487-.2-.67-.342-1.443-.491-2.177-.3-1.785-.639-3.615-2.005-5.012-1.416-1.525-3.4-1.889-5.315-2.236a6.346,6.346,0,0,1-6.447-5.22c-.788-1.891-1.569-3.821-3.427-4.937a9.169,9.169,0,0,0-4.647-1.035,11.2,11.2,0,0,1-3.107-.417,10.866,10.866,0,0,1-3.625-2.642,12.343,12.343,0,0,0-4.311-3.066c-3.247-1.191-6.627.319-9.567,1.616l-1,.442c-2.978,1.287-6.742,1.894-8.555-.3-1.078-1.293-1.184-3.268-1.274-5.317-.173-2.732-.329-5.535-2.808-7.024a9.376,9.376,0,0,0-2.35-.835,6.783,6.783,0,0,1-1.75-.546,1.64,1.64,0,0,1-.694-1.442c.042-.185.087-.215.169-.235a.9.9,0,0,0,.632-.913,6.478,6.478,0,0,0,1.546-2.738,3.963,3.963,0,0,0-1.353-4.086c-1.574-1.17-3.694-.588-5.02.287a17.478,17.478,0,0,0-1.648,1.271,14.828,14.828,0,0,1-1.648,1.272,5.578,5.578,0,0,1-4.581.424,7.142,7.142,0,0,1-4.341-3.463c-1.54-3.075-.844-7.251,1.722-10.19a15.616,15.616,0,0,1,10.01-4.835,40.949,40.949,0,0,1,11.789.674,6.362,6.362,0,0,1,3.742,1.417,6.731,6.731,0,0,1,1.221,2.925c.1.413.207.827.318,1.2.607,2.008,2.172,3.917,4.311,3.769,2.231-.205,3.409-2.519,3.566-4.629.042-.537.009-1.091.005-1.6a7.147,7.147,0,0,1,.364-3.04c.819-1.925,3.26-2.552,5.628-3.2.5-.161,1.036-.276,1.541-.438,4.189-1.291,7.776-4.083,10.935-6.539l10.272-7.937c3.868-3,7.835-6.1,11.479-9.5a.038.038,0,0,0,.046-.03,2.085,2.085,0,0,0,.252-.256,2.055,2.055,0,0,0,.289-.247l.008-.038a13.277,13.277,0,0,0,2.087-2.539c.856-1.215,1.542-2.193,2.761-2.585,1.173-.362,2.283.431,3.639,1.356,1.281.91,2.766,1.942,4.539,1.87a9.535,9.535,0,0,0,1.408-.195,2.507,2.507,0,0,1,1.57-.04,1.542,1.542,0,0,1,.561,1.334,8.869,8.869,0,0,1-.174,1.483,8.122,8.122,0,0,0-.169.937,8.661,8.661,0,0,0,4.38,8.545,6.685,6.685,0,0,0,1.408.509,3.314,3.314,0,0,0,3.7-1.205,4.391,4.391,0,0,0,.405-2.875c-.526-4.643-1.046-9.323-1.565-14a17.911,17.911,0,0,1,.106-6.961l.187-.66c.529-1.678,1.228-3.941-.428-5.441-1.752-1.6-4.205-.389-5.866.412-2.161,1.118-4.942,1.514-6.259-.106a5.656,5.656,0,0,1-.8-1.66,6.251,6.251,0,0,0-1.482-2.632c-1.875-1.744-4.854-1.158-6.671.349a14.955,14.955,0,0,0-2.831,3.428c-.34.47-.632.913-.972,1.384a16.268,16.268,0,0,1-8.853,5.949c-1.57.392-2.69.338-3.4-.17-.831-.652-1.205-1.946-1.072-4.3.046-1.784.145-3.987-1.217-5.577a7.16,7.16,0,0,0-2.007-1.5,4.847,4.847,0,0,1-1.595-1.252,2.134,2.134,0,0,1-.3-1.628,3.325,3.325,0,0,1,1.459-2.172c1.181-.752,2.867-.962,5.094-.623.565.087,1.16.219,1.726.306a19.364,19.364,0,0,0,4.394.588c3.76-.06,7.007-2.029,10.126-3.949a37.686,37.686,0,0,1,5.578-2.973c5.1-1.87,10.822-.946,16.326-.072l.3.028a13.075,13.075,0,0,0,1.909.191,80.616,80.616,0,0,1,11.064,22.166,84.433,84.433,0,0,1,4.011,24.927c-.008.038.02.083.012.119a2.442,2.442,0,0,0,.231.715c.021.082.013.119.042.165a.817.817,0,0,1,.161.153,1.332,1.332,0,0,0,.256.252,1.412,1.412,0,0,0,.3.223,1.157,1.157,0,0,0,.364.119.525.525,0,0,0,.336.075l.223.05c.036.008.082-.022.128-.05a.935.935,0,0,0,.368-.074,1.646,1.646,0,0,0,.376-.111l.137-.087c12.994-8.423,30.2-18.054,48.237-17.942.388.009.74.009,1.119.055,17.667.381,33.99,7.33,45.052,19.156,12.843,13.822,18.59,34.8,15.382,56.056A98.77,98.77,0,0,1,369.647,523.684Z" transform="translate(-119.172 -352.599)" fill="#304189"></path><path d="M240.859,374.931a22.154,22.154,0,0,1-4.094-.013,23.571,23.571,0,0,1-7.576-2.778,26.316,26.316,0,0,0-8.161-2.948,25.626,25.626,0,0,0-7.887.546l-1.581.272c-2.541.37-5.841.65-8.456-.75a13.456,13.456,0,0,0-5.274-2.423c-5.949-1.323-13.055.8-18.566,3.827a79.388,79.388,0,0,0-11.094,7.949c-2.57,2.082-5.24,4.258-8.028,6.1a100.892,100.892,0,0,1-13.163,6.9c-5.525,2.556-11.184,5.2-16.076,8.946,10.821-23.03,29.333-39.238,50.4-43.795,20.25-4.389,42.737,2.215,58.689,17.315C240.289,374.337,240.565,374.671,240.859,374.931Z" transform="translate(-115.157 -351.631)" fill="#d7effb"></path><path d="M180.3,557.1a40.842,40.842,0,0,0-.617-7.746c-.144-.578-.326-1.165-.462-1.781a17.751,17.751,0,0,1-.824-4.358c-.078-2.983,1.22-5.659,2.464-8.268,1.111-2.368,2.153-4.593,2.24-6.915a6.554,6.554,0,0,0,0-.859c-.346-4.056-3.679-6.788-7.211-9.68A40.909,40.909,0,0,1,170.992,513c-4.092-4.577-5.557-10.8-6.641-16.265-.619-3.181-1.13-6.845.462-9.963a15.715,15.715,0,0,1,4.451-4.745l1.438-1.2c1.111-.962,3.578-3.456,2.984-6.047-.374-1.644-1.842-2.946-3.435-4.2L153,456.951c-3.989-3.111-8.066-6.36-12.919-7.868-.587-.17-1.173-.34-1.768-.472a15.263,15.263,0,0,1-5.3-2.153c-4.258-3.133-4.306-9.231-4.321-14.072-.04-3.676-.711-9.951-5.193-11.378a.892.892,0,0,1-.482-.458c-1.707,16.084-1.255,33.859,1.383,52.863.8,5.717,1.831,11.409,3.06,17.107a232.58,232.58,0,0,0,15.4,46.7c6.5,14.245,18.272,33.251,37.835,45.448Zm-16.263-16.339a5.628,5.628,0,0,1-3.609.444,4.739,4.739,0,0,1-1.541-.616,5.209,5.209,0,0,1-2.08-4.676,5.128,5.128,0,0,1,2.686-4.357,5.136,5.136,0,1,1,4.545,9.205Z" transform="translate(-118.202 -329.343)" fill="#d7effb"></path><path d="M248.131,538.317c-1.46,2.875-2.919,5.749-4.424,8.653-1.513,2.941-2.988,5.89-4.5,8.829-1.248,2.454-3.236,5.25-5.578,4.729a7.031,7.031,0,0,1-1.833-.876,6.038,6.038,0,0,0-3.458-1.121c-2.066.165-3.5,2.225-3.781,4.192a13.272,13.272,0,0,0,.032,3.362c.032.554.111,1.078.106,1.624.024,5.858-4.753,10.49-9.633,14.71-5.169,4.468-10.358,8.5-16.39,8.6a.939.939,0,0,0-.9.735c-.455,1.694-.889,3.47-1.315,5.208a39.073,39.073,0,0,0-1.466,9.389c-3.233-.368-6.3-.779-9.272-1.283a1.684,1.684,0,0,0-.732-.748c-.9-.513-1.764-1.017-2.664-1.529l-.408-26.74a41.677,41.677,0,0,0-.691-8.112c-.136-.616-.31-1.24-.483-1.863a16.043,16.043,0,0,1-.729-3.909c-.066-2.511,1.055-4.915,2.274-7.415,1.314-2.75,2.654-5.612,2.415-8.747-.4-4.849-4.227-8-7.89-11a40.213,40.213,0,0,1-4.675-4.24c-3.807-4.28-5.189-10.167-6.212-15.389-.577-3.016-1.047-6.163.263-8.72a13.7,13.7,0,0,1,3.958-4.113c.525-.429,1.013-.867,1.538-1.3,1.644-1.428,4.338-4.419,3.546-7.872-.474-2.251-2.233-3.813-4.129-5.288l-17.217-13.625c-3.915-3.1-8.368-6.584-13.547-8.2-.623-.178-1.211-.348-1.842-.489a13.781,13.781,0,0,1-4.659-1.856c-3.486-2.57-3.514-7.883-3.553-12.613-.012-3.631-.675-9.592-4.615-12.225l.008-.036a1.025,1.025,0,0,0-.768-1.107l-.909-.125c-.372-.082-.714-.119-1.086-.2a156.585,156.585,0,0,1,5.841-28c.761-2.366,1.5-4.466,2.337-6.464a18.653,18.653,0,0,1,.809-1.887c.839-.789,1.715-1.569,2.612-2.267,4.809-3.729,10.469-6.37,15.993-8.926a100.59,100.59,0,0,0,13.436-7.076,99.034,99.034,0,0,0,8.2-6.173,75.678,75.678,0,0,1,10.784-7.784c6.8-3.715,16.132-6.045,21.861-1.455l.111.025a.128.128,0,0,0,.066.054,9.726,9.726,0,0,0,2.595.968,19.308,19.308,0,0,0,7.031-.035l1.619-.264a23.387,23.387,0,0,1,7.3-.522c2.624.31,5.011,1.5,7.576,2.778a27.375,27.375,0,0,0,8.2,2.956,26.863,26.863,0,0,0,5.156-.023l.942-.024c.094.1.2.161.293.26,1.577,1.678,3.084,3.5,4.538,5.38a.036.036,0,0,1-.046.028l-.3-.066c-5.762-.932-11.719-1.867-17.33.2a38.807,38.807,0,0,0-5.879,3.1c-3.028,1.862-5.883,3.646-9.164,3.656a17.018,17.018,0,0,1-3.977-.534c-.6-.1-1.2-.227-1.8-.322-2.756-.419-4.845-.142-6.408.915a5.255,5.255,0,0,0-2.314,3.386,4.086,4.086,0,0,0,.6,3.1,6.177,6.177,0,0,0,2.219,1.781,6.807,6.807,0,0,1,1.47,1.107c.9,1.02.846,2.686.762,4.462s.056,4.3,1.9,5.688c1.168.885,2.808,1.055,4.965.481a17.87,17.87,0,0,0,9.945-6.643c.338-.471.678-.941.988-1.458a12.861,12.861,0,0,1,2.463-3c1.193-.983,3.123-1.412,4.193-.432a4.987,4.987,0,0,1,.983,1.9,7.309,7.309,0,0,0,1.11,2.2c1.949,2.463,5.745,2.059,8.609.589,1.533-.75,2.958-1.37,3.734-.651.681.62.38,1.8-.142,3.441l-.193.7c-.757,2.523-.448,5.168-.2,7.721.519,4.68,1.046,9.323,1.6,14.012a2.776,2.776,0,0,1-.125,1.612c-.417.647-1.64.532-2.585.048a6.852,6.852,0,0,1-3.4-6.648,5.779,5.779,0,0,1,.137-.789,10.341,10.341,0,0,0,.22-1.863,3.259,3.259,0,0,0-1.593-3.007,3.879,3.879,0,0,0-2.859-.13c-.322.046-.69.121-1.05.157a6.533,6.533,0,0,1-3.44-1.546c-1.517-1.078-3.2-2.272-5.263-1.6-1.842.565-2.821,1.987-3.748,3.341a12.062,12.062,0,0,1-2.07,2.466A142.727,142.727,0,0,1,210.5,426.2l-10.235,7.945c-3.207,2.485-6.5,5.028-10.354,6.2a11.329,11.329,0,0,1-1.5.409c-2.623.742-5.651,1.552-6.845,4.29a9.261,9.261,0,0,0-.538,3.82c0,.509.016.98-.017,1.479-.067,1.35-.769,2.756-1.8,2.838s-1.962-1.177-2.309-2.425c-.119-.338-.223-.752-.334-1.127A7.894,7.894,0,0,0,174.9,445.9c-1.255-1.372-3.084-1.74-4.82-2.009a43.863,43.863,0,0,0-12.334-.676,17.384,17.384,0,0,0-11.205,5.466c-3.05,3.534-3.86,8.582-1.962,12.322a9.049,9.049,0,0,0,5.492,4.421c.187.042.364.119.55.161a7.478,7.478,0,0,0,5.523-.8,14.205,14.205,0,0,0,1.921-1.446,8.216,8.216,0,0,1,1.459-1.119c.871-.587,2.11-.9,2.846-.342a2.054,2.054,0,0,1,.619,2.129,5.136,5.136,0,0,1-1.554,2.424c-.1.1-.086.215-.111.326a2.108,2.108,0,0,0-.723,1.321,3.524,3.524,0,0,0,1.648,3.294,7.26,7.26,0,0,0,2.247.773,7.543,7.543,0,0,1,1.846.644c1.587.938,1.706,3.033,1.87,5.45.115,2.289.25,4.66,1.691,6.424,2.118,2.578,6.109,2.882,10.769.875l1.034-.434c2.738-1.263,5.6-2.538,8.154-1.58a10.3,10.3,0,0,1,3.627,2.642,12.3,12.3,0,0,0,4.319,3.029,10.817,10.817,0,0,0,3.664.542,8.1,8.1,0,0,1,3.734.753c1.3.8,1.965,2.388,2.655,4.024a10.556,10.556,0,0,0,2.9,4.664,11.079,11.079,0,0,0,4.961,1.729c1.681.336,3.3.616,4.311,1.662.95.992,1.211,2.455,1.482,4.036a20.214,20.214,0,0,0,.553,2.425c1.552,4.949,6.62,7.6,9.531,8.715,1.726.658,3.494,1.129,5.217,1.629a45.384,45.384,0,0,1,6.608,2.212c4.143,1.9,6.839,5.033,7.185,8.388C250.916,532.813,249.511,535.621,248.131,538.317Z" transform="translate(-117.894 -348.344)" fill="#304189"></path><path d="M303.413,438.483c-1.062-.094-2.127-.149-3.231-.207a94.758,94.758,0,0,0-9.84.019,116.28,116.28,0,0,0-30.3,6.119,29.448,29.448,0,0,0-2.946-6.37c-.455-.787-.987-1.538-1.519-2.291a2.834,2.834,0,0,0-.43-.556,66.455,66.455,0,0,1,46.569-5.918A18.787,18.787,0,0,1,303.413,438.483Z" transform="translate(-72.635 -326.984)" fill="#3789ed"></path><path d="M326.847,500.309c-.479.752-.885,1.519-1.365,2.271a154.736,154.736,0,0,1-10.468,14.6,177.253,177.253,0,0,1-29.548,28.811c.208-4.44.416-8.882.615-13.284.166-3.9.4-8.3-.821-12.435-.392-1.219-.867-2.417-1.35-3.577-1.064-2.578-2.051-4.984-1.737-7.449a17.173,17.173,0,0,1,1.7-4.849c1.231-2.729,2.526-5.562,1.333-8.443-.974-2.284-3.246-3.648-4.927-4.686a33.945,33.945,0,0,0-9.367-4.192,14.2,14.2,0,0,0-3.778-.373,25.459,25.459,0,0,0-7.151,1.8,21.677,21.677,0,0,1-7.007,1.678c-3.9-.009-7.878-2.3-10.684-6.162-2.73-3.69-4.224-8.2-5.557-12.2-1.4-4.215-1.246-7.028.466-8.4a7.189,7.189,0,0,1,2.227-1.066,15.278,15.278,0,0,0,1.446-.536c1.487-.722,3.149-2.225,2.864-4.279a4.653,4.653,0,0,0-1.788-2.66,8.334,8.334,0,0,1-1.028-1.165c-1.581-2.537,2.554-5.87,3.405-6.538l10.628-8.131a56.175,56.175,0,0,1,4.59-3.27,29.151,29.151,0,0,1,4.05,8.627.038.038,0,0,0,.03.046.142.142,0,0,1,.012.119,3.749,3.749,0,0,0,.326.463c.094.1.107.219.211.281a1.628,1.628,0,0,0,.871.467,2.229,2.229,0,0,0,.859,0l.091-.058c.038.009.074.017.082-.02a113.62,113.62,0,0,1,31.12-6.417c.083-.022.157,0,.24-.026a16.864,16.864,0,0,0,2.152,2.079c3.514,2.616,8.012,2.915,12.362,3.18,4.462.291,8.691.569,11.755,3.28,2.8,2.5,3.765,6.573,4.433,10.585A116.329,116.329,0,0,1,326.847,500.309Z" transform="translate(-79.261 -324.131)" fill="#304189"></path><path d="M373.822,483.352c3.208-21.252-2.54-42.234-15.382-56.056-11.063-11.826-27.386-18.775-45.052-19.156-.38-.046-.732-.046-1.119-.055-18.04-.113-35.243,9.519-48.237,17.942l-.137.087a1.646,1.646,0,0,1-.376.111.935.935,0,0,1-.368.074c-.046.028-.091.058-.128.05l-.223-.05a.525.525,0,0,1-.336-.075,1.157,1.157,0,0,1-.364-.119,1.412,1.412,0,0,1-.3-.223,1.332,1.332,0,0,1-.256-.252.817.817,0,0,0-.161-.153c-.028-.046-.02-.083-.042-.165a2.442,2.442,0,0,1-.231-.715c.008-.036-.02-.082-.012-.119a84.433,84.433,0,0,0-4.011-24.927,80.616,80.616,0,0,0-11.064-22.166,13.075,13.075,0,0,1-1.909-.191l-.3-.028c-5.5-.874-11.228-1.8-16.326.072a37.686,37.686,0,0,0-5.578,2.973c-3.119,1.919-6.366,3.888-10.126,3.949a19.364,19.364,0,0,1-4.395-.588c-.566-.087-1.161-.219-1.726-.306-2.227-.34-3.913-.129-5.094.623a3.325,3.325,0,0,0-1.459,2.172,2.134,2.134,0,0,0,.3,1.628A4.846,4.846,0,0,0,201,388.941a7.16,7.16,0,0,1,2.007,1.5c1.362,1.591,1.263,3.793,1.217,5.577-.133,2.35.242,3.644,1.072,4.3.706.509,1.825.562,3.4.17a16.268,16.268,0,0,0,8.853-5.949c.34-.471.632-.914.972-1.384a14.955,14.955,0,0,1,2.831-3.428c1.817-1.507,4.8-2.093,6.671-.349a6.251,6.251,0,0,1,1.482,2.632,5.656,5.656,0,0,0,.8,1.66c1.317,1.62,4.1,1.224,6.259.106,1.66-.8,4.114-2.011,5.866-.412,1.656,1.5.957,3.764.428,5.441l-.187.66a17.911,17.911,0,0,0-.106,6.961c.519,4.68,1.039,9.361,1.565,14a4.391,4.391,0,0,1-.405,2.875,3.314,3.314,0,0,1-3.7,1.205,6.685,6.685,0,0,1-1.408-.509,8.661,8.661,0,0,1-4.38-8.545,8.122,8.122,0,0,1,.169-.937,8.869,8.869,0,0,0,.174-1.483,1.542,1.542,0,0,0-.561-1.334,2.507,2.507,0,0,0-1.57.04,9.535,9.535,0,0,1-1.408.195c-1.773.073-3.259-.96-4.539-1.87-1.356-.925-2.466-1.718-3.639-1.356-1.219.392-1.9,1.37-2.761,2.585a13.277,13.277,0,0,1-2.087,2.539l-.008.038a2.055,2.055,0,0,1-.289.247,2.085,2.085,0,0,1-.252.256.038.038,0,0,1-.046.03c-3.644,3.4-7.611,6.5-11.479,9.5l-10.272,7.937c-3.16,2.456-6.746,5.248-10.935,6.539-.5.161-1.038.276-1.541.438-2.368.644-4.809,1.271-5.628,3.2a7.147,7.147,0,0,0-.364,3.04c0,.507.036,1.062-.005,1.6-.157,2.11-1.336,4.424-3.566,4.629-2.14.148-3.7-1.761-4.311-3.769-.111-.376-.215-.789-.318-1.2a6.731,6.731,0,0,0-1.221-2.925,6.362,6.362,0,0,0-3.742-1.417,40.949,40.949,0,0,0-11.789-.674,15.616,15.616,0,0,0-10.01,4.835c-2.566,2.94-3.262,7.115-1.722,10.19a7.142,7.142,0,0,0,4.341,3.463,5.578,5.578,0,0,0,4.581-.424,14.828,14.828,0,0,0,1.648-1.272,17.478,17.478,0,0,1,1.648-1.271c1.326-.875,3.446-1.458,5.02-.287a3.963,3.963,0,0,1,1.353,4.086,6.478,6.478,0,0,1-1.546,2.738.9.9,0,0,1-.632.913c-.082.02-.128.05-.169.235a1.64,1.64,0,0,0,.694,1.442,6.783,6.783,0,0,0,1.75.546,9.376,9.376,0,0,1,2.35.835c2.479,1.489,2.635,4.292,2.808,7.024.09,2.048.2,4.024,1.274,5.317,1.813,2.2,5.577,1.592,8.555.3l1-.442c2.941-1.3,6.321-2.807,9.567-1.616a12.344,12.344,0,0,1,4.311,3.066,10.866,10.866,0,0,0,3.625,2.642,11.2,11.2,0,0,0,3.107.417,9.169,9.169,0,0,1,4.647,1.035c1.858,1.115,2.639,3.046,3.427,4.937a6.346,6.346,0,0,0,6.447,5.22c1.911.348,3.9.711,5.315,2.236,1.366,1.4,1.7,3.227,2.005,5.012.149.734.289,1.507.491,2.177,1.329,4.2,5.843,6.529,8.4,7.487,1.652.642,3.382,1.1,5.068,1.6a47.175,47.175,0,0,1,6.9,2.317c4.742,2.187,7.859,5.884,8.249,9.912.376,3.4-1.232,6.592-2.637,9.4-1.5,2.866-2.964,5.777-4.423,8.652-1.327,2.631-2.675,5.18-3.993,7.773-.195.348-.36.74-.554,1.086-2.785,5.506-5.7,6.145-7.668,5.707a8.038,8.038,0,0,1-2.376-1.075,4.648,4.648,0,0,0-2.333-.91c-1.042.119-1.876,1.416-2.058,2.586a13.435,13.435,0,0,0,.048,2.937c.032.553.094,1.152.119,1.742-.011,6.708-5.3,11.891-10.271,16.17-5.306,4.554-10.557,8.691-16.923,9.069-.368,1.479-.745,2.995-1.121,4.51a36.019,36.019,0,0,0-1.408,9.129,178.924,178.924,0,0,0,81.308-10.5,176.588,176.588,0,0,0,43.381-23.821,1.031,1.031,0,0,1,.235-.181,2.086,2.086,0,0,1,.29-.248c.25-4.977.47-10,.682-14.986.2-3.9.4-7.947-.732-11.79-.334-1.127-.816-2.289-1.271-3.4-1.122-2.668-2.266-5.42-1.872-8.415a17.973,17.973,0,0,1,1.864-5.4c1.129-2.442,2.2-4.778,1.3-6.89a6.261,6.261,0,0,0-2.311-2.582,20.851,20.851,0,0,0-1.843-1.191c-3.621-2.133-7.731-4.53-12.076-4.287a23.4,23.4,0,0,0-6.611,1.65,22.457,22.457,0,0,1-7.623,1.815c-4.482-.021-9.057-2.6-12.229-6.935-2.91-3.925-4.445-8.6-5.828-12.728-1.647-5.049-1.294-8.559,1.086-10.488a9.138,9.138,0,0,1,2.8-1.366c.43-.177.851-.318,1.243-.5.958-.45,1.934-1.326,1.789-2.255a3.131,3.131,0,0,0-1.176-1.549,8.137,8.137,0,0,1-1.372-1.554c-1.609-2.582-.192-5.973,3.85-9.053l10.635-8.168c1.451-1.082,3.029-2.213,4.674-3.291-.2-.318-.442-.644-.652-.925a1.882,1.882,0,0,1-.149-2.14,1.775,1.775,0,0,1,.944-1.429,70.34,70.34,0,0,1,51.53-6.79,1.89,1.89,0,0,1,1.247,1.058l.087.136a22.193,22.193,0,0,1,2.209,13.562,1.9,1.9,0,0,1-1.64,1.587,2.523,2.523,0,0,1-.984.211,89.306,89.306,0,0,0-10.946-.252c.2.162.416.405.652.574,3.035,2.314,7.041,2.544,11.31,2.829,4.617.286,9.385.607,12.9,3.73,3.254,2.91,4.331,7.362,5.036,11.734a117.125,117.125,0,0,1-.264,37.124A98.77,98.77,0,0,0,373.822,483.352ZM262.137,444.878a4.58,4.58,0,0,1-.715-.119,18.193,18.193,0,0,1-3.993-1.513c-1.686-.844-2.474-2.034-2.156-3.289a3,3,0,0,1,1.38-1.644c.137-.087,6.714-4.4,10.667-2.7a4.063,4.063,0,0,1,2.378,3.338,5.217,5.217,0,0,1-2.356,4.977A7.437,7.437,0,0,1,262.137,444.878Zm39.8,108.857a2.211,2.211,0,0,1-.887-.042,2.233,2.233,0,0,1-.889-.392,5.482,5.482,0,0,1-1.531-3.463,3.22,3.22,0,0,0-.532-1.991,3.565,3.565,0,0,0-1.115-.6,4.427,4.427,0,0,1-1.764-1.016,2.95,2.95,0,0,1-.758-3.252,7.044,7.044,0,0,1,5.321-3.926,4.321,4.321,0,0,1,3.7,1.254c1.891,2.02,1.572,5.382,1.431,6.365q-.268,1.989-.646,3.953C303.935,552.464,303.121,553.493,301.935,553.735Zm11.19-125.483a28.493,28.493,0,0,1-2.45,1.718,13,13,0,0,0-3.1,2.354,14.212,14.212,0,0,0-1.984,3.3,19.761,19.761,0,0,1-1.455,2.68,12.031,12.031,0,0,1-7.805,5.091,15.123,15.123,0,0,1-5.225-.188,8.353,8.353,0,0,1-4.4-2.306,8.611,8.611,0,0,1-2.013-6.73l.032-.149a4.332,4.332,0,0,1,2.4-3.056c1.7-.792,3.5-.313,5.094.081,1.434.4,2.8.74,3.829.15a5.543,5.543,0,0,0,1.871-2.276l.195-.346a24.228,24.228,0,0,1,7.707-8.157,10.131,10.131,0,0,1,4.619-1.819,5.1,5.1,0,0,1,4.808,2.24C316.721,423.317,315.286,426.432,313.125,428.252Z" transform="translate(-112.146 -344.539)" fill="#d7effb"></path><path d="M278.3,410.022a5.1,5.1,0,0,0-4.808-2.24,10.132,10.132,0,0,0-4.619,1.819,24.229,24.229,0,0,0-7.707,8.157l-.195.346a5.544,5.544,0,0,1-1.871,2.276c-1.03.589-2.4.247-3.829-.15-1.591-.393-3.4-.872-5.094-.081a4.332,4.332,0,0,0-2.4,3.056l-.032.149a8.611,8.611,0,0,0,2.013,6.73,8.353,8.353,0,0,0,4.4,2.306,15.123,15.123,0,0,0,5.225.188,12.031,12.031,0,0,0,7.805-5.091,19.768,19.768,0,0,0,1.455-2.68,14.212,14.212,0,0,1,1.984-3.3,13,13,0,0,1,3.1-2.354,28.494,28.494,0,0,0,2.45-1.718C278.344,415.611,279.779,412.5,278.3,410.022Zm-3.349,5.926a15.458,15.458,0,0,1-2.259,1.565,17.833,17.833,0,0,0-3.5,2.734,16.678,16.678,0,0,0-2.276,3.745,18.237,18.237,0,0,1-1.323,2.437,10.008,10.008,0,0,1-6.523,4.244c-2.64.466-6.3-.114-7.894-1.874a6.562,6.562,0,0,1-1.564-5.07,2.571,2.571,0,0,1,1.392-1.874c1.042-.471,2.409-.128,3.813.224,1.627.4,3.507.9,5.192-.015a6.927,6.927,0,0,0,2.62-3.007l.195-.348a22.634,22.634,0,0,1,7.057-7.519,8.38,8.38,0,0,1,3.731-1.511,3.336,3.336,0,0,1,3.056,1.344C277.59,412.516,276.445,414.681,274.952,415.948Z" transform="translate(-75.204 -333.717)" fill="#304189"></path><path d="M274.469,415.462a15.458,15.458,0,0,1-2.259,1.565,17.835,17.835,0,0,0-3.5,2.734,16.678,16.678,0,0,0-2.276,3.745,18.234,18.234,0,0,1-1.323,2.437,10.008,10.008,0,0,1-6.523,4.244c-2.64.466-6.3-.114-7.894-1.874a6.562,6.562,0,0,1-1.564-5.07,2.571,2.571,0,0,1,1.392-1.874c1.042-.471,2.409-.128,3.813.224,1.627.4,3.507.9,5.192-.015a6.927,6.927,0,0,0,2.62-3.007l.195-.348a22.634,22.634,0,0,1,7.057-7.519,8.379,8.379,0,0,1,3.731-1.511,3.336,3.336,0,0,1,3.056,1.344C277.106,412.03,275.961,414.2,274.469,415.462Z" transform="translate(-74.721 -333.232)" fill="#304189"></path><path d="M155.734,503.877a5.252,5.252,0,0,0-5.114-.514,5.128,5.128,0,0,0-2.686,4.357,5.209,5.209,0,0,0,2.08,4.676,4.738,4.738,0,0,0,1.541.616,5.628,5.628,0,0,0,3.609-.444,4.847,4.847,0,0,0,.569-8.691Zm-1.435,6.976a2.962,2.962,0,0,1-4.478-3.024,3.19,3.19,0,0,1,1.666-2.752,3.234,3.234,0,0,1,3.189.4,2.948,2.948,0,0,1-.377,5.377Z" transform="translate(-109.333 -301.153)" fill="#304189"></path><path d="M155.755,507.8a3.22,3.22,0,1,1-6.416-.452,3.19,3.19,0,0,1,1.666-2.752,3.234,3.234,0,0,1,3.189.4A3.271,3.271,0,0,1,155.755,507.8Z" transform="translate(-108.851 -300.669)" fill="#304189"></path><path d="M265.5,505.145c.141-.983.46-4.345-1.431-6.365a4.321,4.321,0,0,0-3.7-1.254,7.044,7.044,0,0,0-5.321,3.926,2.95,2.95,0,0,0,.758,3.252,4.428,4.428,0,0,0,1.764,1.016,3.563,3.563,0,0,1,1.115.6,3.22,3.22,0,0,1,.532,1.991,5.482,5.482,0,0,0,1.531,3.463,2.234,2.234,0,0,0,.889.392,2.212,2.212,0,0,0,.887.042c1.187-.243,2-1.271,2.331-3.11Q265.236,507.135,265.5,505.145Zm-3.3,5.2a.593.593,0,0,1-.326-.111,2.15,2.15,0,0,1-.664-1.4c-.034-.2-.059-.443-.083-.682A4.73,4.73,0,0,0,260,504.974a4.168,4.168,0,0,0-1.764-1.017,3.3,3.3,0,0,1-1.078-.591,1.1,1.1,0,0,1-.3-1.276,5.507,5.507,0,0,1,3.682-2.693,3.137,3.137,0,0,1,1,.067,2.122,2.122,0,0,1,1.144.644c1.046,1.091,1.148,3.26.965,4.78-.207,1.28-.421,2.6-.666,3.871C262.812,509.7,262.531,510.259,262.2,510.341Z" transform="translate(-72.738 -303.011)" fill="#304189"></path><path d="M262.494,508.277c-.17.937-.451,1.5-.781,1.581a.593.593,0,0,1-.326-.111,2.15,2.15,0,0,1-.664-1.4c-.034-.2-.059-.443-.083-.682a4.73,4.73,0,0,0-1.126-3.177,4.168,4.168,0,0,0-1.764-1.017,3.3,3.3,0,0,1-1.078-.591,1.1,1.1,0,0,1-.3-1.276,5.507,5.507,0,0,1,3.682-2.693,3.137,3.137,0,0,1,1,.067,2.122,2.122,0,0,1,1.144.644c1.046,1.091,1.148,3.26.965,4.78C262.953,505.686,262.738,507,262.494,508.277Z" transform="translate(-72.249 -302.528)" fill="#304189"></path><path d="M240.248,423.892a4.063,4.063,0,0,0-2.378-3.338c-3.953-1.7-10.53,2.611-10.667,2.7a3,3,0,0,0-1.38,1.644c-.318,1.255.47,2.444,2.156,3.289a18.193,18.193,0,0,0,3.993,1.513,4.58,4.58,0,0,0,.715.119,7.437,7.437,0,0,0,5.205-.948A5.217,5.217,0,0,0,240.248,423.892Zm-3.405,3.378a5.343,5.343,0,0,1-3.854.663,14.1,14.1,0,0,1-4.16-1.471c-.813-.377-1.213-.856-1.164-1.079.04-.185.45-.446.587-.533,1.788-1.2,5.949-3.24,8.365-2.7a2.209,2.209,0,0,1,.475.145,2.057,2.057,0,0,1,1.26,1.88A3.334,3.334,0,0,1,236.842,427.271Z" transform="translate(-82.696 -329.477)" fill="#304189"></path><path d="M236.356,426.786a5.343,5.343,0,0,1-3.854.663,14.1,14.1,0,0,1-4.16-1.471c-.813-.377-1.213-.856-1.164-1.079.04-.185.45-.446.587-.533,1.788-1.2,5.949-3.24,8.365-2.7a2.209,2.209,0,0,1,.475.145,2.057,2.057,0,0,1,1.26,1.88A3.334,3.334,0,0,1,236.356,426.786Z" transform="translate(-82.21 -328.992)" fill="#304189"></path><path d="M303.413,438.483c-1.062-.094-2.127-.149-3.231-.207l-1.013-6.88a203.929,203.929,0,0,0-21.872.383c-7.624.67-16.718,4.655-20.2,6.266-.455-.787-.987-1.538-1.519-2.291a2.834,2.834,0,0,0-.43-.556,66.455,66.455,0,0,1,46.569-5.918A18.787,18.787,0,0,1,303.413,438.483Z" transform="translate(-72.635 -326.984)" fill="#304189"></path><path d="M367.584,517.86a157.714,157.714,0,0,1-10.707,14.979,181.713,181.713,0,0,1-32.327,31.12c-.054.066-.144.123-.2.189a181.077,181.077,0,0,1-128.271,35.167c-3.854-.391-7.451-.879-11.016-1.517l-.075-.016a1.8,1.8,0,0,1-1.225-.974,1.056,1.056,0,0,1-.328-.113c-23.331-12.449-36.835-33.988-44.1-49.886a236.707,236.707,0,0,1-17.17-55.206c1.68,2.442,3.431,4.743,5.244,6.942,16,19.441,36.469,30.9,55.637,37.509.644.26,1.26.477,1.876.691,25.07,8.311,47.605,8.566,54.541,8.08.756-.066,1.466-.1,2.231-.205,27.693-2.42,59.154-12.82,78.329-37.267.384-.5.776-1.038,1.123-1.545a79.961,79.961,0,0,0,12.177-23.86,76.542,76.542,0,0,0,3.063-29.362c-.1-1.31-.235-2.627-.379-3.909a104.632,104.632,0,0,0-1.926-10.806c-.3-1.276-.6-2.553-.941-3.837a145.4,145.4,0,0,0-13.749-33.063c-.813-1.43-1.54-2.723-2.225-3.851.4-.03.748-.028,1.136-.02,19.122.158,36.936,7.6,48.9,20.442,13.63,14.661,19.742,36.816,16.359,59.2C381.551,490.342,376.173,504.165,367.584,517.86Z" transform="translate(-118.149 -337.37)" fill="#87b8f4" opacity="0.4" style="mix-blend-mode:multiply;isolation:isolate"></path></g><g transform="translate(-88.453 391.631)"><path d="M326.386,535.652a12.93,12.93,0,0,0-2.6-3.53c-2.793-2.74-6.412-4.264-9.584-5.612-9.963-4.182-19.75-8.851-29.237-13.389-7.406-3.514-15.076-7.08-22.79-10.535,7.158.221,13.822.417,20.524.616,8.911.236,17.861.475,28.027.779,3.389.1,7.235.225,10.817-1.189,3.545-1.416,7.118-4.852,7.012-9.4-.117-3.592-2.456-8.443-13.032-11.131a527.98,527.98,0,0,0-66.406-12.205c7.256-3.129,14.383-6.684,20.088-12.221,4.581-4.452,8.208-11.088,4.823-16.375-2.185-3.432-6.531-4.918-12.808-4.483-10.333.679-20.238,4.127-29.792,7.441-12.7,4.409-24.666,8.589-37.936,7.094-42.254-6.594-81.285-22.327-119.084-37.536-13.7-5.56-36.556-15.641-58.66-25.415-16.887-7.443-34.181-15.1-47.577-20.755-4.216-1.784-8.021-3.395-11.347-4.711a.334.334,0,0,0-.188-.048,1.419,1.419,0,0,0-.379-.058,1.419,1.419,0,0,0-.383.017.729.729,0,0,0-.307.06,2.838,2.838,0,0,0-.35.134,1.583,1.583,0,0,0-.278.215,1.747,1.747,0,0,0-.281.252c-.042.074-.121.107-.162.181-16.892,26.958-36.7,68.75-42.941,101.373l0,.077a1.58,1.58,0,0,0,.016.42.759.759,0,0,0,.023.306c.032.115.1.234.134.35a2.084,2.084,0,0,0,.174.314l.216.24c.11.082.217.2.329.283a.037.037,0,0,1,.035.04c45.177,25.817,106.638,43.6,166.11,60.779,58.118,16.844,118.227,34.212,162.391,58.984a17.978,17.978,0,0,0,7.569,2.569,6.776,6.776,0,0,0,5.765-2.291c2.321-2.816,1.891-6.995-1.173-11.845a166.07,166.07,0,0,0-13.932-18.73c5.672,3.119,11.079,6.185,16.339,9.169,9.367,5.37,19.109,10.876,30.113,16.332a29.405,29.405,0,0,0,9.283,3.346l.95.05a10.914,10.914,0,0,0,9.15-3.6c3.017-3.731,2.337-8.954.31-12.492-2.059-3.655-5.511-6.2-8.3-8.252-8.408-6.236-15.732-11.272-23.46-16.672-5.153-3.549-10.451-7.259-16.114-11.292,6.3,1.969,12.528,4.012,18.638,6.047,9.743,3.294,19.826,6.643,30.085,9.582a37.72,37.72,0,0,0,8.414,1.7,16.2,16.2,0,0,0,2.711-.048c4.678-.48,8.559-3.252,9.824-7A10.24,10.24,0,0,0,326.386,535.652Zm-253.3-13.167C16.432,506.1-41.436,488.885-84.4,464.6c6.3-31.4,25.034-71.074,41.321-97.376,2.8,1.137,5.934,2.483,9.369,3.883,13.394,5.7,30.876,13.437,47.91,20.963,22.142,9.777,45.031,19.86,58.812,25.423,10.569,4.29,21.289,8.588,32.094,12.738-8.131,16.2-20.626,43.655-28.049,73.281C75.467,509.757,74.1,516.13,73.086,522.484Zm27.536,8q-10.538-3.066-20.962-6.091c-.977-.281-1.954-.56-2.893-.838,1.013-6.278,2.333-12.539,3.876-18.714,7.384-29.627,19.923-57.193,28.047-73.281,8.19,3.1,16.425,6.083,24.784,8.847a347.46,347.46,0,0,0-28.9,73.466Q102.368,522.222,100.622,530.483Zm222.937,11.847c-.9,2.7-3.995,4.177-6.64,4.459-3.182.329-6.49-.607-9.683-1.537-10.145-2.894-20.191-6.241-29.9-9.5-9.519-3.205-19.34-6.464-29.3-9.35a4.039,4.039,0,0,1-.514-.37,1.89,1.89,0,0,0-2.511,2.805,2.043,2.043,0,0,0,1.168,1.015l.114.007c9.29,6.854,17.348,12.461,25.113,17.864,7.727,5.362,15.013,10.433,23.384,16.63,2.5,1.808,5.582,4.1,7.259,7.052,1.326,2.358,1.9,5.9.028,8.2-1.629,2.013-4.513,2.434-6.672,2.169-2.8-.338-5.592-1.742-8.082-2.979-10.894-5.374-20.112-10.661-29.89-16.208-7.777-4.448-15.813-9.025-24.724-13.648l-.25-.318a1.958,1.958,0,0,0-2.7-.255,1.921,1.921,0,0,0-.255,2.694l.18.2a2,2,0,0,0,.43.556l3.95,4.67c6.964,8.334,10.159,12.124,15.871,21.041.988,1.539,3.076,5.347,1.45,7.284-1.872,2.267-6.6,0-8.523-1.094-38.31-21.491-88.275-37.412-138.606-52.172,1.121-5.4,2.435-10.818,3.9-16.271,2.619-9.97,5.774-19.987,9.38-29.868a340.913,340.913,0,0,1,19.6-43.823,364.353,364.353,0,0,0,55.538,13.659c.038,0,.074.042.111.043l.191.011c.568.067,1.1.172,1.663.276l.191.011a2.475,2.475,0,0,0,.769-.113c13.116.762,25.308-3.368,37.075-7.443,9.323-3.25,18.956-6.6,28.792-7.267,4.784-.321,7.939.607,9.353,2.74,2.785,4.341-3.063,10.443-4.267,11.6-6.551,6.408-15.514,10.057-24.166,13.61l-.9.411a.737.737,0,0,0-.264-.052,1.887,1.887,0,0,0-2.109,1.682,1.922,1.922,0,0,0,1.719,2.111,530.627,530.627,0,0,1,73.759,13.085c3.726.957,10.016,3.193,10.131,7.546.051,2.672-2.352,4.874-4.609,5.747-2.844,1.148-6.118,1.015-9.278.925-10.167-.3-19.116-.541-28.066-.78-8.947-.278-17.9-.517-28.026-.817a1.863,1.863,0,0,0-1.965,1.843,2.048,2.048,0,0,0,.149.808,1.853,1.853,0,0,0,1.119,1.927c9.923,4.217,19.747,8.888,29.273,13.429s19.35,9.21,29.387,13.434c3.021,1.3,6.157,2.611,8.405,4.825a9.712,9.712,0,0,1,2.091,3.046A6.176,6.176,0,0,1,323.558,542.329Z" transform="translate(88.453 -362.986)" fill="#304189"></path><path d="M104.064,429.152c-9.874,19.621-26.1,55.8-32.014,92.258C15.4,505.023-42.472,487.811-85.44,463.522c6.294-31.4,25.034-71.074,41.321-97.377,13.853,5.644,35.92,15.417,57.279,24.848,22.142,9.777,45.031,19.858,58.812,25.423C82.54,420.706,93.261,425,104.064,429.152Z" transform="translate(89.484 -361.905)" fill="#3789ed"></path><path d="M91.346,422.927A345.821,345.821,0,0,0,58.49,513q-10.536-3.068-20.96-6.091c-.977-.281-1.954-.56-2.894-.839,5.827-36.306,22.1-72.562,31.925-91.993C74.752,417.178,82.985,420.163,91.346,422.927Z" transform="translate(130.579 -345.5)" fill="#ef8450"></path><path d="M274.417,522.518c-.9,2.7-3.995,4.177-6.64,4.458-3.182.33-6.49-.605-9.683-1.536-10.146-2.9-20.191-6.243-29.9-9.495-9.519-3.205-19.34-6.466-29.3-9.35a4.176,4.176,0,0,1-.514-.37,1.89,1.89,0,0,0-2.511,2.805,2.044,2.044,0,0,0,1.166,1.015l.114.005c9.291,6.855,17.35,12.463,25.113,17.865,7.729,5.361,15.014,10.433,23.386,16.629,2.5,1.809,5.582,4.106,7.259,7.053,1.326,2.358,1.9,5.9.028,8.2-1.631,2.012-4.513,2.433-6.672,2.168-2.805-.337-5.592-1.741-8.082-2.977-10.894-5.374-20.113-10.661-29.892-16.208-7.776-4.448-15.812-9.027-24.723-13.649l-.251-.318a1.958,1.958,0,0,0-2.694-.255,1.921,1.921,0,0,0-.255,2.694l.18.2a2.038,2.038,0,0,0,.428.556l3.952,4.668c6.962,8.335,10.158,12.126,15.871,21.042.988,1.54,3.076,5.348,1.45,7.284-1.872,2.266-6.6,0-8.523-1.094-38.31-21.492-88.275-37.414-138.606-52.173a342.307,342.307,0,0,1,32.886-89.96,364.153,364.153,0,0,0,55.538,13.657c.038,0,.074.043.111.044l.191.009c.568.068,1.1.172,1.663.278l.191.011a2.464,2.464,0,0,0,.768-.113c13.118.762,25.308-3.368,37.077-7.443,9.323-3.251,18.956-6.6,28.792-7.267,4.784-.322,7.938.607,9.353,2.74,2.785,4.341-3.063,10.441-4.268,11.6-6.551,6.407-15.514,10.057-24.166,13.609l-.9.411a.708.708,0,0,0-.264-.051,1.887,1.887,0,0,0-2.109,1.682,1.921,1.921,0,0,0,1.719,2.111,530.668,530.668,0,0,1,73.759,13.084c3.725.958,10.016,3.195,10.131,7.547.051,2.672-2.353,4.874-4.611,5.746-2.844,1.148-6.117,1.015-9.278.926-10.166-.3-19.116-.541-28.065-.781-8.947-.276-17.9-.515-28.026-.816a1.862,1.862,0,0,0-1.965,1.842,2.072,2.072,0,0,0,.148.809,1.853,1.853,0,0,0,1.121,1.926c9.923,4.219,19.747,8.89,29.273,13.43s19.35,9.21,29.387,13.435c3.021,1.3,6.157,2.609,8.405,4.825C273.836,516.843,275.319,519.858,274.417,522.518Z" transform="translate(137.59 -343.168)" fill="#fff"></path><path d="M327.154,543.586c-1.264,3.748-5.146,6.519-9.824,7a16.2,16.2,0,0,1-2.711.048,37.72,37.72,0,0,1-8.414-1.7c-10.259-2.94-20.342-6.288-30.085-9.582-6.11-2.035-12.334-4.078-18.638-6.047,5.663,4.033,10.961,7.743,16.114,11.292,7.727,5.4,15.052,10.436,23.46,16.672,2.79,2.052,6.243,4.6,8.3,8.252,2.027,3.538,2.707,8.761-.31,12.492a10.914,10.914,0,0,1-9.15,3.6l-.95-.05a29.405,29.405,0,0,1-9.283-3.346c-11-5.456-20.746-10.962-30.113-16.332-5.26-2.984-10.667-6.049-16.339-9.169a166.07,166.07,0,0,1,13.932,18.73c3.064,4.851,3.494,9.029,1.173,11.845a6.776,6.776,0,0,1-5.765,2.291,17.978,17.978,0,0,1-7.569-2.569c-44.164-24.771-104.273-42.14-162.391-58.984-59.472-17.182-120.933-34.963-166.11-60.779a.037.037,0,0,0-.035-.04c-.111-.082-.219-.2-.329-.283l-.216-.24a2.084,2.084,0,0,1-.174-.314c-.032-.117-.1-.235-.134-.35a.759.759,0,0,1-.023-.306,1.58,1.58,0,0,1-.016-.42l0-.077C-82.2,432.6-62.393,390.809-45.5,363.852c.042-.074.121-.107.162-.181a1.747,1.747,0,0,1,.281-.252,1.583,1.583,0,0,1,.278-.215,2.838,2.838,0,0,1,.35-.134.729.729,0,0,1,.307-.06,1.419,1.419,0,0,1,.383-.017,1.419,1.419,0,0,1,.379.058.334.334,0,0,1,.188.048c3.326,1.317,7.131,2.927,11.347,4.711-.668,1.11-1.3,2.22-1.889,3.3C-78.37,451.3,23.8,486.958,62.844,498.8c4.055,1.242,8.852,2.828,14.208,4.71,1.16.442,2.358.847,3.592,1.331,7.225,2.589,15.339,5.683,23.935,9.032,1.2.482,2.392.926,3.588,1.408C155.513,533.887,214.731,559.56,219.56,561.3c6.664,2.37-2.776-3.586-5.762-20.36-2.871-16.126,61.385,26.654,65.033,24.042,7.578-5.428-52.118-36.623-43.083-44.76,5.513-4.965,50.507,11.233,64.789,17.433,9.061,3.945,19.109,2.182,22.683.234a13.772,13.772,0,0,0,3.168-2.236A10.24,10.24,0,0,1,327.154,543.586Z" transform="translate(88.453 -362.986)" fill="#87b8f4" opacity="0.4" style="mix-blend-mode:multiply;isolation:isolate"></path></g></g></svg>